<svg width="152" height="48" viewBox="0 0 152 48" fill="none" xmlns="http://www.w3.org/2000/svg">
<path fill-rule="evenodd" clip-rule="evenodd" d="M0 30.5619C0 19.7732 3.53487 0 17.9321 0C28.8313 0 44.6278 13.0864 44.6278 25.5137C44.6278 34.6086 31.1143 45.9129 21.6143 45.9129C13.2558 45.9129 12.5193 35.7869 12.5193 28.7908C12.5193 22.9362 13.9922 13.9885 19.7732 13.9885C24.9282 13.9885 31.8507 19.9904 31.8507 25.4032C31.8507 30.9633 22.4023 34.2294 18.7459 33.2867C19.2945 37.3702 20.3992 39.9146 22.2771 39.9146C29.0891 39.9146 38.3681 31.5193 38.3681 25.591C38.3681 17.2693 26.7325 6.73835 18.4108 6.73835C8.3585 6.73835 6.25967 22.3139 6.25967 30.0464C6.25967 35.3856 7.6589 43.5968 11.4515 47.6472C3.68216 50.0037 0 40.1355 0 30.5619ZM20.8778 20.2887C18.5581 20.2887 18.4476 25.9592 18.4476 27.7635V29.0154C21.3565 29.0154 25.8856 27.8003 25.8856 25.0387C25.8856 23.1608 22.5716 20.2887 20.8778 20.2887ZM51.182 24.0444C51.1452 17.6375 53.465 15.0231 56.1898 15.0231C62.0812 15.0231 67.2363 20.215 67.2363 23.8972C67.2363 29.1479 60.4022 33.9752 55.4534 32.4287V38.5522C52.6917 38.5522 51.2189 35.9746 51.2189 33.5444L51.182 24.0444ZM55.4534 24.0076V28.8313C59.0987 29.8623 62.7072 26.5851 62.7072 24.3022C62.7072 22.0193 59.0987 19.2208 56.8894 19.2208C55.7479 19.2208 55.4534 21.0251 55.4534 24.0076ZM75.3739 14.6918C72.0967 14.6918 68.4146 16.0542 69.6665 19.6995C71.2685 18.9531 73.0175 18.5756 74.7847 18.5949C77.3622 18.5949 78.6142 19.5522 78.6142 21.2829V22.5311C74.306 20.2077 68.525 21.7579 68.525 27.1007C68.525 30.8197 71.3235 33.1026 75.8894 33.1026C79.6452 33.1026 82.8855 30.3778 82.8855 26.7693V21.1356C82.8855 17.3429 79.8293 14.6918 75.3739 14.6918ZM75.7421 29.4204C73.7537 29.4204 72.7595 28.2421 72.7595 27.027C72.7595 25.8119 73.7537 24.5968 75.8157 24.5968H78.6142V26.5115C78.6142 28.279 77.5095 29.4204 75.7421 29.4204ZM92.518 26.9056L95.4048 18.2415C96.0676 16.2016 98.9765 14.876 101.075 15.4799L93.306 35.2531C92.2381 38.0515 89.7343 39.0089 87.5618 38.3093L90.1614 32.0275L83.0327 15.5535C85.242 14.7803 87.8195 15.7744 88.9242 18.3888L92.518 26.9056ZM106.709 27.2848V8.80033C103.947 8.80033 102.475 11.3778 102.475 13.8081V28.1685C102.475 31.4824 104.463 33.1026 106.341 33.1026C108.071 33.1026 109.655 32.1084 109.655 29.4204H108.55C107.188 29.4204 106.709 28.4999 106.709 27.2848ZM111.312 19.6995C110.06 16.0542 113.742 14.6918 117.019 14.6918C121.474 14.6918 124.531 17.3429 124.531 21.1356V26.7693C124.531 30.3778 121.29 33.1026 117.535 33.1026C112.969 33.1026 110.17 30.8197 110.17 27.1007C110.17 21.7579 115.951 20.2077 120.259 22.5311V21.2829C120.259 19.5522 119.007 18.5949 116.43 18.5949C114.663 18.5756 112.914 18.9531 111.312 19.6995ZM114.405 27.027C114.405 28.2421 115.399 29.4204 117.387 29.4204C119.155 29.4204 120.259 28.279 120.259 26.5115V24.5968H117.461C115.399 24.5968 114.405 25.8119 114.405 27.027ZM132.3 19.1472C132.801 19.1793 133.302 19.1074 133.774 18.9362C134.245 18.7649 134.676 18.4979 135.039 18.1521C135.402 17.8062 135.69 17.3889 135.884 16.9265C136.078 16.4641 136.174 15.9665 136.166 15.465H131.81V9.90498C129.049 9.90498 127.576 12.4825 127.576 14.9127V28.1685C127.576 31.4824 129.712 33.1026 131.737 33.1026C133.615 33.1026 135.345 32.1084 135.345 29.4204H133.651C132.289 29.4204 131.81 28.4999 131.81 27.2848V19.1177L132.3 19.1472ZM140.99 25.4069C140.99 27.9844 142.242 29.3468 144.819 29.3468C146.599 29.3684 148.357 28.9511 149.938 28.1317C151.079 31.7402 147.581 33.1026 144.525 33.1026C139.37 33.1026 136.719 29.8623 136.719 25.1859V22.498C136.719 18.0426 139.959 14.6918 143.936 14.6918C148.354 14.6918 151.079 16.9747 151.079 20.6937C151.079 26.0402 145.298 27.5904 140.99 25.267V25.4069ZM146.845 20.7674C146.845 19.5522 145.85 18.3739 143.862 18.3739C142.095 18.3739 140.99 20.0825 140.99 22.66V23.1976H143.788C145.85 23.1976 146.845 21.9825 146.845 20.7674Z" fill="#EB3B66"/>
</svg>
